Patient4_TMGait_0pt7_01_left_08_EMG.mot
version=1
nRows=33
nColumns=33
inDegrees=no
endheader
time	1LAddLong	2LGlutMax	3LGlutMed	4LIliopsoas	5LSemiMemb	6LBicFemLong	7LRecFem	8LVastMed	9LVastLat	10LGasMed	11LTibAnt	12lTibPost	13LPeroneusLong	14LSol	15LExtDigLong	16LFlexDigLong	17RAddLong	18RGlutMax	19RGlutMed	20RIliopsoas	21RSemiMemb	22RBicFemLong	23RRecFem	24RVastMed	25RVastLat	26RGasMed	27RTibAnt	28RTibPost	29RPeroneusLong	30RSol	31RExtDigLong	32RFlexDigLong
10.005	-0.001984	0.22995	0.43381	0.016022	-0.037994	-0.089874	-0.085297	0.004272	-0.032501	0.027161	0.00946	0.003204	0.054169	0.029907	0.015717	-0.048523	0.049286	-0.17044	-0.064545	-0.059509	0.85968	-0.96619	-0.63812	0.083466	0.37567	-0.009003	-0.32379	-0.015411	0.5719	0.20371	-0.000916	-0.008087
10.006	-0.003357	0.25833	0.45868	0.016632	-0.10559	-0.10788	-0.06012	-0.010376	-0.023804	-0.072174	0.005493	-0.11658	-0.02243	0.035248	0.029144	-0.016479	0.079346	-0.17014	0.26199	-0.025024	0.69	-0.85388	-0.44388	-0.28778	0.2684	-0.003357	-0.2861	-0.006104	-0.31647	0.2417	0.010681	-0.002136
10.007	0.008392	0.26718	0.49377	0.005646	-0.12848	-0.082092	-0.06958	-0.007324	-0.025177	0.052185	-0.012207	0.080414	-0.054779	0.1001	0.029755	0.007629	0.099792	-0.10834	0.075684	-0.024719	0.63492	-0.64484	-0.5278	-0.40512	0.86853	0.003662	0.039978	-0.011902	-0.37369	0.22446	0.001373	0.001068
10.008	0.018768	0.29739	0.51239	0.018921	0.059357	-0.10895	-0.05249	-0.007019	-0.029755	-0.083923	0.003204	-0.11505	-0.072784	0.26001	0.023041	-0.012512	0.15656	-0.09964	-0.046997	0.067139	0.569	-0.48523	-0.38269	-0.12131	0.8609	-0.002899	0.011902	-0.007324	0.066986	0.20508	0.006866	-0.010681
10.009	0.001526	0.30914	0.54352	0.017242	0.1741	-0.087891	-0.028992	0.005493	-0.046082	-0.1059	0.012054	-0.033417	-0.12695	0.16586	-0.001068	-0.006409	0.1973	-0.168	-0.045624	-0.009003	0.43076	-0.34531	-0.35599	1.3376	0.44144	-0.006409	-0.14297	-0.009918	0.37399	0.2005	0.00885	-0.032043
10.01	0.004272	0.25803	0.55115	0.010376	0.026703	0.074768	-0.010834	0	-0.056763	-0.10147	0.015411	0.068665	-0.042572	0.31601	0.006866	-0.018005	0.20096	-0.13687	-0.073395	-0.031128	0.27893	-0.28778	-0.35736	1.3829	-0.059967	-0.009918	-0.45944	-0.002899	0.38116	0.10651	0.003815	-0.02121
10.011	0.007019	0.23438	0.59097	0.011139	0.00885	0.16007	-0.029449	-0.003967	-0.06012	0.036774	0.014038	-0.010071	0.10529	0.45013	-0.003967	0.006714	0.16434	-0.22919	-0.22812	-0.000916	0.21484	-0.19577	-0.53314	0.53741	-0.22064	-0.00885	-0.56381	-0.008545	0.12024	0.024872	0.009308	-0.022278
10.012	-0.001221	0.23743	0.60638	0.004883	0.005341	0.076294	-0.043488	0.006104	-0.056305	0.14496	0.007324	0.054626	0.14984	0.45487	0.020599	0.000458	0.057068	-0.33478	-0.4216	-0.039063	0.21881	-0.16296	-0.81436	-0.28442	-0.21408	-0.016327	-0.42465	-0.008698	-0.056763	-0.011292	0.005493	-0.029602
10.013	-0.004578	0.22247	0.61844	0.001068	0.028229	-0.000305	-0.018005	-0.002899	-0.068359	0.093079	-0.004272	0.006714	0.15717	0.29159	-0.033264	-0.00824	0.062561	-0.23346	-0.87494	-0.013428	0.008392	-0.20554	-0.71091	-1.3347	-0.29465	-0.009308	-0.24841	-0.001678	-0.21774	-0.03067	0.000305	-0.019836
10.014	-0.009003	0.23163	0.62286	0.016479	0.027161	0.001831	-0.019836	0.003967	-0.056915	0.005646	0.004425	-0.015717	0.13855	-0.44891	-0.072937	-0.073853	-0.002136	-0.25284	-1.1346	-0.030518	0.45593	-0.21759	-0.52856	-1.7358	-0.26596	-0.007629	-0.037994	-0.003967	-0.29724	0.025635	0.010071	-0.017853
10.015	-0.005798	0.21561	0.70801	0.010071	0.010986	-0.002136	-0.041351	-0.001068	-0.045013	-0.007324	0.01709	-0.002899	-0.11215	-0.52704	-0.04715	-0.023651	-0.043488	-0.20783	-1.402	-0.056	0.5069	-0.12054	-0.59158	-1.81	0.075989	-0.011749	0.61249	-0.00412	-0.17807	-0.037842	0.008087	-0.0177
10.016	0.012054	0.20157	0.78445	-0.001984	-0.006714	-0.038452	-0.074921	0.000305	-0.045471	0.018768	0.011444	-0.025177	-0.009766	-0.53513	-0.030365	0.039063	-0.087585	-0.22781	-0.91354	-0.045013	0.29114	-0.08728	-0.55725	-1.6284	0.32883	-0.010986	1.1153	-0.003204	-0.070953	-0.088501	0.002899	-0.014343
10.017	0.004272	0.1564	0.75012	0.005646	-0.001831	-0.039063	-0.086975	0.000763	-0.036621	0.023956	0.005798	-0.03479	-0.11475	-0.1622	-0.020905	0.040283	-0.17395	-0.38437	0.086517	-0.039825	0.2652	0.06134	-0.45792	-0.86105	0.27878	-0.01358	1.3458	0.002899	-0.2153	-0.14389	0.004425	-0.014801
10.018	-0.001221	0.18219	0.77057	0.003357	0.001678	0.005646	-0.097504	0.007172	-0.043335	0.16937	0.023499	-0.001221	-0.10284	0.13199	-0.018005	-0.022888	-0.15762	-0.43045	1.2231	-0.035706	0.30502	0.22232	-0.36606	-0.4866	0.052795	-0.00824	0.97717	-0.001221	-0.030365	-0.19867	0.001831	-0.010223
10.019	-0.002899	0.18204	0.7608	-0.006866	-0.004578	0.053253	-0.13107	0.002441	-0.036011	0.35049	0.026703	0.018463	-0.068207	0.015411	0.005341	-0.008087	-0.10223	-0.29526	1.4795	-0.10025	0.42526	0.35767	-0.44037	-0.59586	-0.11337	-0.00061	-0.054169	-0.000916	0.05661	-0.11215	0.005188	-0.007629
10.02	-0.00824	0.17273	0.71823	0.003967	-0.00885	0.087585	-0.12283	-0.007782	-0.028534	0.6308	0.007629	0.019989	-0.007324	0.12924	0.055695	0.05127	-0.071411	-0.32089	0.68375	-0.13809	0.67551	0.41962	-0.28366	0.5751	-0.071564	0.001831	-1.1801	0.001984	0.31052	-0.001221	0.000916	-0.019989
10.021	0.007935	0.16464	0.73135	0.012817	-0.019073	0.11917	-0.16983	-0.002441	-0.00351	0.62943	0.01358	-0.037384	0.11215	0.28564	0.069275	0.046844	-0.039673	-0.30487	0.24994	-0.077057	0.54947	0.4686	-0.24475	0.91492	0.15335	-0.007324	-0.64545	-0.000305	0.22873	0.025024	-0.005341	-0.019989
10.022	0.023041	0.16388	0.78049	-0.001984	-0.024109	0.051727	-0.15808	-0.012207	-0.002441	0.34637	0.004578	-0.044403	0.058899	0.33173	0.038605	0.04425	-0.063934	-0.14206	0.42526	0.10086	0.079346	0.49408	-0.20493	0.71152	0.45425	-0.007172	-0.27176	0.000763	-0.091858	-0.064392	0.00061	-0.016022
10.023	0.019073	0.18295	0.77942	0.007782	-0.040894	0.019989	-0.14603	-0.005188	-0.007935	0.19363	0.016022	-0.055389	-0.078583	-0.02655	0.036621	0.097656	0.001678	0.00473	-0.083771	0.21027	0.10529	0.51697	-0.034332	0.17273	0.27115	-0.008698	-0.29266	0.002289	-0.30319	-0.081787	-0.00061	-0.010071
10.024	0.02594	0.25574	0.85693	-0.005951	0.026245	-0.060272	-0.13626	0.031281	-0.004272	-0.044861	0.029144	-0.022736	-0.15991	-0.15671	0.030212	0.056305	0.015717	0.088654	-0.36697	0.12161	-0.20645	0.49301	-0.078735	-0.1181	0.097351	-0.008087	-0.22812	0.003204	0.074615	-0.054474	-0.001678	-0.015564
10.025	0.014038	0.15656	0.75455	0.009308	0.026398	-0.069122	-0.12268	0.000305	-0.019226	-0.72311	0.010376	-0.14053	-0.090179	-0.082703	0.045776	-0.073853	-0.028992	-0.087585	-0.070496	0.015259	-0.052032	0.44128	-0.26291	0.060577	0.052185	-0.002136	-0.050964	0.00061	-0.40146	-0.10666	0.002136	-0.016632
10.026	0.015717	0.15503	0.91126	0.015869	-0.004272	-0.014648	-0.09491	-0.003662	-0.0354	-0.56274	0.010529	0.2388	-0.018921	0.14145	0.032196	-0.11932	-0.14023	-0.16083	-0.4834	-0.040131	0.19409	0.54596	-0.29938	0.12558	-0.12909	-0.005951	-0.019684	0.001221	-0.7843	-0.10468	0.001526	-0.015869
10.027	0.006866	0.12283	1.0132	0.014801	-0.032654	0.075684	-0.094757	0.011292	-0.033569	-0.2063	0.011749	0.41824	0.004425	0.48416	0.009003	-0.10498	-0.22003	-0.29556	-0.7663	-0.033722	0.21255	0.46646	-0.27039	0.52887	-0.23117	-0.003815	0.094299	0.000305	0.029907	-0.086975	0.003052	-0.021362
10.028	0.005188	0.094299	0.96451	0.018616	-0.018921	0.10544	-0.091095	0.006409	-0.044098	0.11993	0.009766	0.049438	0.00824	1.013	-0.002136	-0.61829	-0.097046	-0.29114	0.014343	-0.043335	0.030365	0.16007	-0.22461	0.60104	-0.34622	-0.011749	0.14587	0	0.112	-0.029144	-0.002441	-0.020752
10.029	0.009918	0.08194	0.94147	0.020142	-0.037231	0.059967	-0.09491	-0.006561	-0.03006	0.26154	0.006866	-0.39063	0.002899	0.92682	-0.011902	0.3743	0.038452	-0.43732	1.0341	-0.059509	0.063477	-0.00885	-0.40543	0.3183	-0.23071	-0.004883	-0.042419	-0.001373	0.11704	-0.005341	-0.003204	-0.014496
10.03	0.00061	0.094452	0.90988	0.011139	-0.028687	0.008087	-0.098419	0.003204	-0.024872	-0.059052	0.023956	-0.62149	-0.12253	0.54688	-0.04425	-0.12543	0.11658	-0.51468	0.43121	-0.022278	0.15411	-0.016632	-0.14145	-0.20889	-0.17151	-0.010834	-0.18234	0.003815	0.036316	0.034332	0.001373	-0.015564
10.031	0.001831	0.11978	0.92194	0.007782	-0.01297	-0.043945	-0.1236	-0.002441	-0.035706	-0.25146	0.013275	0.091705	-0.11276	0.10742	-0.053864	0.025177	0.19134	-0.6163	0.59113	-0.037079	-0.000916	0.008087	0.18433	-0.68222	0.14099	-0.011292	-0.083618	-0.002899	-0.34988	-0.001984	-0.000153	-0.005493
10.032	0.019226	0.12558	0.90988	0.016174	0.015411	-0.09552	-0.11444	-0.00351	-0.026855	-0.19684	-0.007172	0.13229	0.014648	-0.39154	-0.053406	-0.20355	0.19089	-0.55771	0.38666	0.025482	-0.069885	0.034637	0.1442	-0.7103	0.39795	0.002899	-0.32135	0.003967	-0.18646	-0.097351	-0.002441	-0.009308
10.033	0.021057	0.1384	0.91003	0.022736	0.047607	-0.10666	-0.10544	0.001678	-0.016632	-0.1384	0.00412	0.20828	0.041046	-0.22827	-0.051575	0.26688	0.09079	-0.58075	-0.20248	0.061035	-0.31189	0.1712	0.22522	-0.55725	0.24963	-0.009918	-0.33371	0.000153	-0.19226	-0.13657	-0.00061	-0.001068
10.034	0.011444	0.15243	0.8783	0.006866	0.050964	-0.056915	-0.10361	-0.002899	-0.025482	-0.090637	0.00946	-0.33035	0.041656	-0.20477	-0.039063	0.29266	0.028534	-0.48141	-0.22324	0.008698	-0.50629	0.38315	0.42618	-0.52826	0.016174	-0.014038	-0.076752	0.001221	-0.12833	-0.112	-0.002747	-0.010376
10.035	0.005035	0.12482	0.84579	0.00824	0.044556	-0.045624	-0.11337	0.005035	-0.021667	-0.028534	0.018616	0.06485	-0.002899	-0.27481	-0.031433	0.024261	0.038757	-0.38559	-0.24948	-0.07843	-0.28427	0.49622	0.59677	-0.6958	-0.033875	-0.020142	0.22354	0.007477	-0.17624	-0.028381	-0.004425	-0.005341
10.036	-0.00351	0.10346	0.84381	0.026855	0.031738	-0.039673	-0.1152	-0.003662	-0.007172	-0.030212	0.0177	-0.011139	0.01709	-0.85022	-0.024414	0.40832	0.054626	-0.52872	-0.2179	-0.16449	-0.088196	0.72617	0.61188	-0.63141	-0.03891	-0.009003	0.61935	0.00412	-0.097351	-0.19775	-0.003967	-0.007019
10.037	0.0177	0.10895	0.81314	0.010681	0.02533	-0.017395	-0.11124	-0.000916	-0.022888	-0.11108	0.016174	-0.031433	-0.10925	-0.99106	-0.028687	-0.097351	0.044403	-0.58105	-0.29434	-0.10284	-0.098572	0.64423	0.35523	-0.3035	-0.05249	0.008087	0.88379	0.007019	-0.017395	-0.42664	-0.007935	0.002441
